<mxfile host="Electron" modified="2024-03-21T12:59:55.959Z" agent="Mozilla/5.0 (Windows NT 10.0; Win64; x64) AppleWebKit/537.36 (KHTML, like Gecko) draw.io/24.0.4 Chrome/120.0.6099.109 Electron/28.1.0 Safari/537.36" etag="jFm1ATgijQwp8n-hTaXV" version="24.0.4" type="device">
  <diagram id="C5RBs43oDa-KdzZeNtuy" name="Page-1">
    <mxGraphModel dx="822" dy="948" grid="1" gridSize="10" guides="1" tooltips="1" connect="1" arrows="1" fold="1" page="1" pageScale="1" pageWidth="827" pageHeight="1169" math="1" shadow="0">
      <root>
        <mxCell id="WIyWlLk6GJQsqaUBKTNV-0" />
        <mxCell id="WIyWlLk6GJQsqaUBKTNV-1" parent="WIyWlLk6GJQsqaUBKTNV-0" />
        <mxCell id="v2LBwZ7IoSU0tntJdJ2D-18" style="edgeStyle=orthogonalEdgeStyle;rounded=0;orthogonalLoop=1;jettySize=auto;html=1;exitX=0.5;exitY=1;exitDx=0;exitDy=0;entryX=0.5;entryY=0;entryDx=0;entryDy=0;fillColor=#dae8fc;strokeColor=#6c8ebf;" edge="1" parent="WIyWlLk6GJQsqaUBKTNV-1" source="WIyWlLk6GJQsqaUBKTNV-3" target="v2LBwZ7IoSU0tntJdJ2D-0">
          <mxGeometry relative="1" as="geometry" />
        </mxCell>
        <mxCell id="WIyWlLk6GJQsqaUBKTNV-3" value="开始" style="rounded=1;whiteSpace=wrap;html=1;fontSize=12;glass=0;strokeWidth=1;shadow=0;fillColor=#dae8fc;strokeColor=#6c8ebf;" parent="WIyWlLk6GJQsqaUBKTNV-1" vertex="1">
          <mxGeometry x="370" y="70" width="120" height="30" as="geometry" />
        </mxCell>
        <mxCell id="v2LBwZ7IoSU0tntJdJ2D-20" style="edgeStyle=orthogonalEdgeStyle;rounded=0;orthogonalLoop=1;jettySize=auto;html=1;entryX=0.5;entryY=0;entryDx=0;entryDy=0;fillColor=#dae8fc;strokeColor=#6c8ebf;" edge="1" parent="WIyWlLk6GJQsqaUBKTNV-1" source="v2LBwZ7IoSU0tntJdJ2D-0" target="v2LBwZ7IoSU0tntJdJ2D-1">
          <mxGeometry relative="1" as="geometry" />
        </mxCell>
        <mxCell id="v2LBwZ7IoSU0tntJdJ2D-0" value="令n=1，初始化{\({t}^{0}_{a}\)}得到各分路段分得流量\(x_a(1)\)" style="rounded=0;whiteSpace=wrap;html=1;fillColor=#dae8fc;strokeColor=#6c8ebf;" vertex="1" parent="WIyWlLk6GJQsqaUBKTNV-1">
          <mxGeometry x="280" y="120" width="300" height="40" as="geometry" />
        </mxCell>
        <mxCell id="v2LBwZ7IoSU0tntJdJ2D-21" style="edgeStyle=orthogonalEdgeStyle;rounded=0;orthogonalLoop=1;jettySize=auto;html=1;exitX=0.5;exitY=1;exitDx=0;exitDy=0;entryX=0.5;entryY=0;entryDx=0;entryDy=0;fillColor=#dae8fc;strokeColor=#6c8ebf;" edge="1" parent="WIyWlLk6GJQsqaUBKTNV-1" source="v2LBwZ7IoSU0tntJdJ2D-1" target="v2LBwZ7IoSU0tntJdJ2D-3">
          <mxGeometry relative="1" as="geometry" />
        </mxCell>
        <mxCell id="v2LBwZ7IoSU0tntJdJ2D-1" value="按照当前各路段分配的流量\(x_a(n)\)计算各路段行走时间{\(t_a(n)\)}" style="rounded=0;whiteSpace=wrap;html=1;fillColor=#dae8fc;strokeColor=#6c8ebf;" vertex="1" parent="WIyWlLk6GJQsqaUBKTNV-1">
          <mxGeometry x="255" y="180" width="350" height="40" as="geometry" />
        </mxCell>
        <mxCell id="v2LBwZ7IoSU0tntJdJ2D-23" style="edgeStyle=orthogonalEdgeStyle;rounded=0;orthogonalLoop=1;jettySize=auto;html=1;fillColor=#dae8fc;strokeColor=#6c8ebf;" edge="1" parent="WIyWlLk6GJQsqaUBKTNV-1" source="v2LBwZ7IoSU0tntJdJ2D-3" target="v2LBwZ7IoSU0tntJdJ2D-4">
          <mxGeometry relative="1" as="geometry" />
        </mxCell>
        <mxCell id="v2LBwZ7IoSU0tntJdJ2D-3" value="按{\(t_a(n)\)}和OD流量进行一次随机分配得到路段的附加流量{\(y_a(n)\)}" style="rounded=0;whiteSpace=wrap;html=1;fillColor=#dae8fc;strokeColor=#6c8ebf;" vertex="1" parent="WIyWlLk6GJQsqaUBKTNV-1">
          <mxGeometry x="240" y="240" width="380" height="60" as="geometry" />
        </mxCell>
        <mxCell id="v2LBwZ7IoSU0tntJdJ2D-26" style="edgeStyle=orthogonalEdgeStyle;rounded=0;orthogonalLoop=1;jettySize=auto;html=1;entryX=0.5;entryY=0;entryDx=0;entryDy=0;fillColor=#dae8fc;strokeColor=#6c8ebf;" edge="1" parent="WIyWlLk6GJQsqaUBKTNV-1" source="v2LBwZ7IoSU0tntJdJ2D-4" target="v2LBwZ7IoSU0tntJdJ2D-5">
          <mxGeometry relative="1" as="geometry" />
        </mxCell>
        <mxCell id="v2LBwZ7IoSU0tntJdJ2D-4" value="加权平均法计算{\(x_a(n)\)}$$x_{a}(n+1)=x_{a}(n)+\frac{1}{n}\bigl(y_{a}(n)-x_{a}(n)\bigr),\forall a$$" style="rounded=0;whiteSpace=wrap;html=1;fillColor=#dae8fc;strokeColor=#6c8ebf;" vertex="1" parent="WIyWlLk6GJQsqaUBKTNV-1">
          <mxGeometry x="290" y="320" width="280" height="80" as="geometry" />
        </mxCell>
        <mxCell id="v2LBwZ7IoSU0tntJdJ2D-27" style="edgeStyle=orthogonalEdgeStyle;rounded=0;orthogonalLoop=1;jettySize=auto;html=1;entryX=0.5;entryY=0;entryDx=0;entryDy=0;fillColor=#dae8fc;strokeColor=#6c8ebf;" edge="1" parent="WIyWlLk6GJQsqaUBKTNV-1" source="v2LBwZ7IoSU0tntJdJ2D-5" target="v2LBwZ7IoSU0tntJdJ2D-6">
          <mxGeometry relative="1" as="geometry" />
        </mxCell>
        <mxCell id="v2LBwZ7IoSU0tntJdJ2D-44" style="edgeStyle=orthogonalEdgeStyle;rounded=0;orthogonalLoop=1;jettySize=auto;html=1;exitX=1;exitY=0.5;exitDx=0;exitDy=0;entryX=0.5;entryY=1;entryDx=0;entryDy=0;fillColor=#dae8fc;strokeColor=#6c8ebf;" edge="1" parent="WIyWlLk6GJQsqaUBKTNV-1" source="v2LBwZ7IoSU0tntJdJ2D-5" target="v2LBwZ7IoSU0tntJdJ2D-14">
          <mxGeometry relative="1" as="geometry" />
        </mxCell>
        <mxCell id="v2LBwZ7IoSU0tntJdJ2D-5" value="$$|x_{a}(n)-x_{a}(n-1)|&amp;lt;h_{1}$$" style="rhombus;whiteSpace=wrap;html=1;fillColor=#dae8fc;strokeColor=#6c8ebf;" vertex="1" parent="WIyWlLk6GJQsqaUBKTNV-1">
          <mxGeometry x="290" y="420" width="280" height="55" as="geometry" />
        </mxCell>
        <mxCell id="v2LBwZ7IoSU0tntJdJ2D-28" style="edgeStyle=orthogonalEdgeStyle;rounded=0;orthogonalLoop=1;jettySize=auto;html=1;entryX=0.5;entryY=0;entryDx=0;entryDy=0;fillColor=#dae8fc;strokeColor=#6c8ebf;" edge="1" parent="WIyWlLk6GJQsqaUBKTNV-1" source="v2LBwZ7IoSU0tntJdJ2D-6" target="v2LBwZ7IoSU0tntJdJ2D-7">
          <mxGeometry relative="1" as="geometry" />
        </mxCell>
        <mxCell id="v2LBwZ7IoSU0tntJdJ2D-6" value="建立路网矩阵$$D=(R_{mn})_{M\times N},m=1,2,\ldots,M,n=1,2,\ldots,N$$" style="rounded=0;whiteSpace=wrap;html=1;fillColor=#dae8fc;strokeColor=#6c8ebf;" vertex="1" parent="WIyWlLk6GJQsqaUBKTNV-1">
          <mxGeometry x="255" y="500" width="350" height="60" as="geometry" />
        </mxCell>
        <mxCell id="v2LBwZ7IoSU0tntJdJ2D-30" style="edgeStyle=orthogonalEdgeStyle;rounded=0;orthogonalLoop=1;jettySize=auto;html=1;exitX=0.5;exitY=1;exitDx=0;exitDy=0;entryX=0.5;entryY=0;entryDx=0;entryDy=0;fillColor=#dae8fc;strokeColor=#6c8ebf;" edge="1" parent="WIyWlLk6GJQsqaUBKTNV-1" source="v2LBwZ7IoSU0tntJdJ2D-7" target="v2LBwZ7IoSU0tntJdJ2D-8">
          <mxGeometry relative="1" as="geometry" />
        </mxCell>
        <mxCell id="v2LBwZ7IoSU0tntJdJ2D-7" value="根据动态调整和分配因子\(G_1=(w_x,w_t,\Delta xpm,\Delta comn)\)&lt;div&gt;决定结点后下一条道路属于哪种类型道路&lt;/div&gt;" style="rounded=0;whiteSpace=wrap;html=1;fillColor=#dae8fc;strokeColor=#6c8ebf;" vertex="1" parent="WIyWlLk6GJQsqaUBKTNV-1">
          <mxGeometry x="255" y="580" width="350" height="40" as="geometry" />
        </mxCell>
        <mxCell id="v2LBwZ7IoSU0tntJdJ2D-31" style="edgeStyle=orthogonalEdgeStyle;rounded=0;orthogonalLoop=1;jettySize=auto;html=1;entryX=0.5;entryY=0;entryDx=0;entryDy=0;fillColor=#dae8fc;strokeColor=#6c8ebf;" edge="1" parent="WIyWlLk6GJQsqaUBKTNV-1" source="v2LBwZ7IoSU0tntJdJ2D-8" target="v2LBwZ7IoSU0tntJdJ2D-9">
          <mxGeometry relative="1" as="geometry" />
        </mxCell>
        <mxCell id="v2LBwZ7IoSU0tntJdJ2D-8" value="$$t{\in}(t_{2},t_{3})$$" style="rhombus;whiteSpace=wrap;html=1;fillColor=#dae8fc;strokeColor=#6c8ebf;" vertex="1" parent="WIyWlLk6GJQsqaUBKTNV-1">
          <mxGeometry x="365" y="640" width="130" height="40" as="geometry" />
        </mxCell>
        <mxCell id="v2LBwZ7IoSU0tntJdJ2D-32" style="edgeStyle=orthogonalEdgeStyle;rounded=0;orthogonalLoop=1;jettySize=auto;html=1;entryX=0.5;entryY=0;entryDx=0;entryDy=0;fillColor=#dae8fc;strokeColor=#6c8ebf;" edge="1" parent="WIyWlLk6GJQsqaUBKTNV-1" source="v2LBwZ7IoSU0tntJdJ2D-9" target="v2LBwZ7IoSU0tntJdJ2D-10">
          <mxGeometry relative="1" as="geometry" />
        </mxCell>
        <mxCell id="v2LBwZ7IoSU0tntJdJ2D-9" value="得到每个时间段内\(a_1,a_2,a_3,a_4,b_{11},b_{12},b_{22}\)的值" style="rounded=0;whiteSpace=wrap;html=1;fillColor=#dae8fc;strokeColor=#6c8ebf;" vertex="1" parent="WIyWlLk6GJQsqaUBKTNV-1">
          <mxGeometry x="295" y="710" width="270" height="60" as="geometry" />
        </mxCell>
        <mxCell id="v2LBwZ7IoSU0tntJdJ2D-33" style="edgeStyle=orthogonalEdgeStyle;rounded=0;orthogonalLoop=1;jettySize=auto;html=1;entryX=0.5;entryY=0;entryDx=0;entryDy=0;fillColor=#dae8fc;strokeColor=#6c8ebf;" edge="1" parent="WIyWlLk6GJQsqaUBKTNV-1" source="v2LBwZ7IoSU0tntJdJ2D-10" target="v2LBwZ7IoSU0tntJdJ2D-11">
          <mxGeometry relative="1" as="geometry" />
        </mxCell>
        <mxCell id="v2LBwZ7IoSU0tntJdJ2D-10" value="动态平衡方程&lt;b&gt;\(\text{(*)}\)&lt;/b&gt;" style="rounded=0;whiteSpace=wrap;html=1;fillColor=#dae8fc;strokeColor=#6c8ebf;" vertex="1" parent="WIyWlLk6GJQsqaUBKTNV-1">
          <mxGeometry x="355" y="790" width="150" height="40" as="geometry" />
        </mxCell>
        <mxCell id="v2LBwZ7IoSU0tntJdJ2D-34" style="edgeStyle=orthogonalEdgeStyle;rounded=0;orthogonalLoop=1;jettySize=auto;html=1;entryX=0.5;entryY=0;entryDx=0;entryDy=0;fillColor=#dae8fc;strokeColor=#6c8ebf;" edge="1" parent="WIyWlLk6GJQsqaUBKTNV-1" source="v2LBwZ7IoSU0tntJdJ2D-11" target="v2LBwZ7IoSU0tntJdJ2D-12">
          <mxGeometry relative="1" as="geometry" />
        </mxCell>
        <mxCell id="v2LBwZ7IoSU0tntJdJ2D-11" value="\(\left.\left\{\begin{aligned}F_\alpha\left(i\right)=&amp;amp;\frac{x_{od}^{\left(\alpha\right)}\left(i\right)}{C_{o\alpha}\left(i\right)}\\F_\beta\left(j\right)=&amp;amp;\frac{x_{od}^{\left(\beta\right)}\left(j\right)}{C_{o\beta}\left(j\right)}\end{aligned}\right.\right.\)" style="rounded=0;whiteSpace=wrap;html=1;fillColor=#dae8fc;strokeColor=#6c8ebf;" vertex="1" parent="WIyWlLk6GJQsqaUBKTNV-1">
          <mxGeometry x="330" y="850" width="200" height="100" as="geometry" />
        </mxCell>
        <mxCell id="v2LBwZ7IoSU0tntJdJ2D-35" style="edgeStyle=orthogonalEdgeStyle;rounded=0;orthogonalLoop=1;jettySize=auto;html=1;entryX=0.5;entryY=0;entryDx=0;entryDy=0;fillColor=#dae8fc;strokeColor=#6c8ebf;" edge="1" parent="WIyWlLk6GJQsqaUBKTNV-1" source="v2LBwZ7IoSU0tntJdJ2D-12" target="v2LBwZ7IoSU0tntJdJ2D-13">
          <mxGeometry relative="1" as="geometry" />
        </mxCell>
        <mxCell id="v2LBwZ7IoSU0tntJdJ2D-45" style="edgeStyle=orthogonalEdgeStyle;rounded=0;orthogonalLoop=1;jettySize=auto;html=1;entryX=1;entryY=0.5;entryDx=0;entryDy=0;fillColor=#dae8fc;strokeColor=#6c8ebf;exitX=1;exitY=0.5;exitDx=0;exitDy=0;" edge="1" parent="WIyWlLk6GJQsqaUBKTNV-1" source="v2LBwZ7IoSU0tntJdJ2D-12">
          <mxGeometry relative="1" as="geometry">
            <mxPoint x="589.9953439153443" y="1080.037037037037" as="sourcePoint" />
            <mxPoint x="605.08" y="600" as="targetPoint" />
            <Array as="points">
              <mxPoint x="710" y="1050" />
              <mxPoint x="710" y="600" />
            </Array>
          </mxGeometry>
        </mxCell>
        <mxCell id="v2LBwZ7IoSU0tntJdJ2D-12" value="\(\begin{gathered}\forall i,j,k\text{ 均有}\\h_2&amp;lt;h=\frac{F_\alpha\left(i\right)}{F_\beta\left(j\right)}&amp;lt;h_3\end{gathered}\)" style="rhombus;whiteSpace=wrap;html=1;fillColor=#dae8fc;strokeColor=#6c8ebf;" vertex="1" parent="WIyWlLk6GJQsqaUBKTNV-1">
          <mxGeometry x="270" y="980" width="320" height="140" as="geometry" />
        </mxCell>
        <mxCell id="v2LBwZ7IoSU0tntJdJ2D-13" value="结束" style="rounded=0;whiteSpace=wrap;html=1;fillColor=#dae8fc;strokeColor=#6c8ebf;" vertex="1" parent="WIyWlLk6GJQsqaUBKTNV-1">
          <mxGeometry x="395" y="1150" width="70" height="30" as="geometry" />
        </mxCell>
        <mxCell id="v2LBwZ7IoSU0tntJdJ2D-43" style="edgeStyle=orthogonalEdgeStyle;rounded=0;orthogonalLoop=1;jettySize=auto;html=1;entryX=1;entryY=0.5;entryDx=0;entryDy=0;fillColor=#dae8fc;strokeColor=#6c8ebf;" edge="1" parent="WIyWlLk6GJQsqaUBKTNV-1" source="v2LBwZ7IoSU0tntJdJ2D-14" target="v2LBwZ7IoSU0tntJdJ2D-0">
          <mxGeometry relative="1" as="geometry">
            <Array as="points">
              <mxPoint x="705" y="140" />
            </Array>
          </mxGeometry>
        </mxCell>
        <mxCell id="v2LBwZ7IoSU0tntJdJ2D-14" value="n=n+1" style="rounded=0;whiteSpace=wrap;html=1;fillColor=#dae8fc;strokeColor=#6c8ebf;" vertex="1" parent="WIyWlLk6GJQsqaUBKTNV-1">
          <mxGeometry x="680" y="260" width="50" height="20" as="geometry" />
        </mxCell>
        <mxCell id="v2LBwZ7IoSU0tntJdJ2D-41" value="根据出行最小成本法则\(\min G_2=w_x^2\Delta om+w_t^2\Delta comn\)" style="rounded=0;whiteSpace=wrap;html=1;fillColor=#dae8fc;strokeColor=#6c8ebf;" vertex="1" parent="WIyWlLk6GJQsqaUBKTNV-1">
          <mxGeometry x="10" y="710" width="210" height="60" as="geometry" />
        </mxCell>
        <mxCell id="v2LBwZ7IoSU0tntJdJ2D-46" style="edgeStyle=orthogonalEdgeStyle;rounded=0;orthogonalLoop=1;jettySize=auto;html=1;entryX=0.477;entryY=-0.004;entryDx=0;entryDy=0;entryPerimeter=0;fillColor=#dae8fc;strokeColor=#6c8ebf;" edge="1" parent="WIyWlLk6GJQsqaUBKTNV-1" source="v2LBwZ7IoSU0tntJdJ2D-8" target="v2LBwZ7IoSU0tntJdJ2D-41">
          <mxGeometry relative="1" as="geometry" />
        </mxCell>
        <mxCell id="v2LBwZ7IoSU0tntJdJ2D-47" value="是" style="text;html=1;align=center;verticalAlign=middle;resizable=0;points=[];autosize=1;strokeColor=none;fillColor=none;" vertex="1" parent="WIyWlLk6GJQsqaUBKTNV-1">
          <mxGeometry x="240" y="636" width="40" height="30" as="geometry" />
        </mxCell>
        <mxCell id="v2LBwZ7IoSU0tntJdJ2D-48" value="否" style="text;html=1;align=center;verticalAlign=middle;resizable=0;points=[];autosize=1;strokeColor=none;fillColor=none;" vertex="1" parent="WIyWlLk6GJQsqaUBKTNV-1">
          <mxGeometry x="605" y="1000" width="40" height="30" as="geometry" />
        </mxCell>
        <mxCell id="v2LBwZ7IoSU0tntJdJ2D-49" value="是" style="text;html=1;align=center;verticalAlign=middle;resizable=0;points=[];autosize=1;strokeColor=none;fillColor=none;" vertex="1" parent="WIyWlLk6GJQsqaUBKTNV-1">
          <mxGeometry x="450" y="478" width="40" height="30" as="geometry" />
        </mxCell>
        <mxCell id="v2LBwZ7IoSU0tntJdJ2D-50" value="否" style="text;html=1;align=center;verticalAlign=middle;resizable=0;points=[];autosize=1;strokeColor=none;fillColor=none;" vertex="1" parent="WIyWlLk6GJQsqaUBKTNV-1">
          <mxGeometry x="580" y="442" width="40" height="30" as="geometry" />
        </mxCell>
        <mxCell id="v2LBwZ7IoSU0tntJdJ2D-51" value="否" style="text;html=1;align=center;verticalAlign=middle;resizable=0;points=[];autosize=1;strokeColor=none;fillColor=none;" vertex="1" parent="WIyWlLk6GJQsqaUBKTNV-1">
          <mxGeometry x="450" y="666" width="40" height="30" as="geometry" />
        </mxCell>
      </root>
    </mxGraphModel>
  </diagram>
</mxfile>
